<?xml version="1.0" encoding="UTF-8"?>
<svg id="Calque_2" data-name="Calque 2" xmlns="http://www.w3.org/2000/svg" xmlns:xlink="http://www.w3.org/1999/xlink" viewBox="0 0 60.27 60.27">
  <defs>
    <style>
      .cls-1 {
        fill: #fff;
      }

      .cls-2 {
        fill: url(#radial-gradient);
        stroke: #fff;
        stroke-width: 2.6px;
      }
    </style>
    <radialGradient id="radial-gradient" cx="29.28" cy="-34.51" fx="29.28" fy="-34.51" r="77.92" gradientUnits="userSpaceOnUse">
      <stop offset="0" stop-color="#fff"/>
      <stop offset="1" stop-color="#355af9"/>
    </radialGradient>
  </defs>
  <g id="Body">
    <g id="DetailSalaries">
      <g id="Adresse">
        <path class="cls-2" d="M30.13,1.3h0c15.93,0,28.84,12.91,28.84,28.84h0c0,15.93-12.91,28.84-28.84,28.84h0c-15.93,0-28.84-12.91-28.84-28.84h0C1.3,14.21,14.21,1.3,30.13,1.3Z"/>
        <path class="cls-1" d="M41.41,26.97c-.19-1.95-.88-3.81-2-5.42-1.12-1.6-2.64-2.89-4.41-3.73-1.77-.84-3.72-1.21-5.67-1.07-1.95.14-3.83.78-5.47,1.86-1.4.94-2.58,2.17-3.44,3.62-.87,1.45-1.4,3.07-1.57,4.74-.16,1.67.05,3.35.61,4.92.57,1.58,1.48,3,2.67,4.18l7.07,7.08c.12.12.27.22.43.29.16.07.34.1.51.1s.35-.04.51-.1c.16-.07.31-.17.43-.29l7.04-7.08c1.19-1.18,2.1-2.61,2.67-4.18.57-1.58.78-3.26.61-4.92ZM36.27,34.2l-6.13,6.13-6.13-6.13c-.9-.9-1.6-2-2.03-3.2-.43-1.2-.59-2.49-.47-3.76.12-1.29.54-2.54,1.2-3.65.67-1.11,1.57-2.07,2.65-2.79,1.41-.94,3.08-1.44,4.77-1.44s3.36.5,4.77,1.44c1.08.72,1.98,1.66,2.65,2.77.67,1.11,1.08,2.35,1.21,3.64.13,1.28-.03,2.57-.46,3.77-.43,1.21-1.12,2.31-2.03,3.21ZM30.13,22.13c-1.19,0-2.35.35-3.33,1.01-.99.66-1.75,1.6-2.21,2.69-.45,1.1-.57,2.3-.34,3.47.23,1.16.8,2.23,1.64,3.07.84.84,1.91,1.41,3.07,1.64,1.16.23,2.37.11,3.47-.34,1.1-.45,2.03-1.22,2.69-2.21.66-.99,1.01-2.15,1.01-3.33,0-1.59-.64-3.11-1.76-4.24-1.12-1.12-2.65-1.76-4.24-1.76ZM30.13,31.47c-.66,0-1.3-.2-1.85-.56-.55-.37-.98-.89-1.23-1.5-.25-.61-.32-1.28-.19-1.93.13-.65.45-1.24.91-1.71s1.06-.78,1.71-.91c.65-.13,1.32-.06,1.92.19.61.25,1.13.68,1.5,1.23.37.55.56,1.19.56,1.85,0,.88-.35,1.73-.98,2.36s-1.47.98-2.36.98Z"/>
      </g>
    </g>
  </g>
</svg>