<?xml version="1.0" encoding="UTF-8"?>
<svg id="Calque_2" data-name="Calque 2" xmlns="http://www.w3.org/2000/svg" xmlns:xlink="http://www.w3.org/1999/xlink" viewBox="0 0 40.93 40.93">
  <defs>
    <style>
      .cls-1 {
        opacity: .3;
      }

      .cls-2 {
        fill: url(#Dégradé_sans_nom_16);
      }
    </style>
    <linearGradient id="Dégradé_sans_nom_16" data-name="Dégradé sans nom 16" x1="20.47" y1="41.04" x2="20.47" y2="6.92" gradientUnits="userSpaceOnUse">
      <stop offset="0" stop-color="#495c87"/>
      <stop offset="1" stop-color="#929fcf"/>
    </linearGradient>
  </defs>
  <g id="Calque_1-2" data-name="Calque 1">
    <g class="cls-1">
      <path class="cls-2" d="M38.16,16.32L25.81,2.39c-2.82-3.18-7.88-3.19-10.72-.02L2.83,16.07c-1.83,2.04-2.83,4.66-2.83,7.37v11.68c0,3.21,2.67,5.81,5.97,5.81h29c3.29,0,5.97-2.6,5.97-5.81v-11.53c0-2.67-.98-5.25-2.78-7.27ZM20.58,31.57c-3.55,0-6.42-2.8-6.42-6.25s2.87-6.25,6.42-6.25,6.42,2.8,6.42,6.25-2.87,6.25-6.42,6.25Z"/>
    </g>
  </g>
</svg>