<?xml version="1.0" encoding="UTF-8"?>
<svg id="Calque_2" data-name="Calque 2" xmlns="http://www.w3.org/2000/svg" viewBox="0 0 18 18">
  <defs>
    <style>
      .cls-1 {
        fill: #fff;
      }
    </style>
  </defs>
  <g id="Body">
    <g id="ListSalariés">
      <g id="ContenuDeGrid">
        <g id="btn">
          <g id="btn_rouge">
            <path class="cls-1" d="M9,0c-1.78,0-3.52.53-5,1.52-1.48.99-2.63,2.39-3.31,4.04C0,7.2-.17,9.01.17,10.76c.35,1.75,1.21,3.35,2.47,4.61,1.25,1.26,2.86,2.12,4.6,2.46,1.75.35,3.56.17,5.2-.51,1.65-.68,3.05-1.84,4.04-3.32.99-1.48,1.52-3.22,1.52-5,0-1.18-.23-2.35-.69-3.44-.45-1.09-1.11-2.08-1.95-2.92-.83-.84-1.82-1.5-2.92-1.95-1.09-.45-2.26-.68-3.44-.68ZM9,16.2c-1.42,0-2.82-.42-4-1.21-1.18-.79-2.11-1.92-2.65-3.23-.55-1.32-.69-2.76-.41-4.16.28-1.4.96-2.68,1.97-3.69,1.01-1.01,2.29-1.69,3.69-1.97,1.39-.28,2.84-.14,4.16.41,1.31.54,2.44,1.47,3.23,2.65s1.21,2.58,1.21,4c0,1.91-.76,3.74-2.11,5.09-1.35,1.35-3.18,2.11-5.09,2.11Z"/>
            <path class="cls-1" d="M9,4.5c-.24,0-.47.09-.64.26-.17.17-.26.4-.26.64v4.5c0,.24.09.47.26.64.17.17.4.26.64.26s.47-.09.64-.26c.17-.17.26-.4.26-.64v-4.5c0-.24-.09-.47-.26-.64-.17-.17-.4-.26-.64-.26ZM9.64,11.98l-.14-.12-.16-.08-.17-.08c-.14-.03-.29-.02-.44.02-.14.04-.26.12-.37.23-.08.08-.14.18-.19.29-.05.11-.07.24-.07.36,0,.24.09.46.26.63.09.08.19.15.3.2.11.05.22.07.34.07s.23-.02.34-.07c.11-.05.21-.12.3-.2.17-.17.26-.39.26-.63,0-.12-.02-.24-.07-.35-.05-.1-.11-.19-.19-.27Z"/>
          </g>
        </g>
      </g>
    </g>
  </g>
</svg>