<?xml version="1.0" encoding="UTF-8"?>
<svg id="Calque_2" data-name="Calque 2" xmlns="http://www.w3.org/2000/svg" viewBox="0 0 17.12 17.12">
  <defs>
    <style>
      .cls-1 {
        fill: #fff;
      }
    </style>
  </defs>
  <g id="Body">
    <g id="ListSalariés">
      <g id="ContenuDeGrid">
        <g id="btn">
          <g id="btn_orange">
            <path class="cls-1" d="M15.37,8.56c0,.34-.03.69-.07,1.03.01-.08.02-.16.03-.24-.09.68-.27,1.34-.54,1.97.03-.07.06-.14.09-.21-.26.61-.59,1.17-.99,1.7.04-.06.09-.12.14-.18-.41.52-.88.99-1.4,1.4.06-.05.12-.09.18-.14-.53.4-1.1.73-1.7.99.07-.03.14-.06.21-.09-.63.27-1.29.45-1.97.54.08-.01.16-.02.24-.03-.68.09-1.37.09-2.06,0,.08.01.16.02.24.03-.68-.09-1.34-.27-1.97-.54.08.03.15.06.21.09-.6-.26-1.17-.59-1.69-.99.06.05.11.09.17.14-.52-.41-.99-.88-1.39-1.4.04.06.09.12.13.18-.4-.53-.73-1.09-.99-1.7.03.07.06.14.09.21-.26-.63-.45-1.29-.54-1.97.01.08.02.16.04.24-.09-.68-.09-1.37,0-2.05-.02.07-.03.15-.04.23.09-.68.27-1.34.54-1.96-.03.07-.06.14-.09.2.26-.6.59-1.17.99-1.69-.04.06-.09.11-.13.17.4-.52.87-.99,1.39-1.39-.06.04-.11.09-.17.13.52-.4,1.09-.73,1.69-.99-.07.03-.14.06-.21.09.63-.26,1.29-.44,1.97-.54-.08.01-.16.03-.24.04.68-.09,1.38-.09,2.06,0-.08-.01-.16-.03-.24-.04.68.1,1.34.27,1.97.54-.07-.03-.14-.06-.21-.09.6.26,1.17.59,1.7.99-.06-.04-.12-.09-.18-.13.52.4.99.87,1.4,1.39-.05-.06-.1-.11-.14-.17.4.52.73,1.09.99,1.69-.03-.07-.06-.14-.09-.2.27.62.45,1.28.54,1.96-.01-.08-.02-.16-.03-.23.04.34.07.68.07,1.02,0,.23.09.46.25.62.16.16.4.27.62.26.23,0,.47-.08.63-.26.15-.17.26-.38.25-.62,0-.88-.13-1.77-.4-2.61-.27-.81-.64-1.59-1.14-2.29-.27-.37-.55-.73-.87-1.05-.32-.33-.66-.62-1.03-.9-.68-.52-1.43-.91-2.23-1.21-.83-.3-1.71-.46-2.58-.49-.89-.04-1.79.07-2.65.31-.81.23-1.61.59-2.32,1.06-.7.46-1.35,1.02-1.89,1.67-.29.36-.57.73-.8,1.12-.24.4-.43.81-.61,1.24C.27,6.22.09,7.09.02,7.96c-.07.88.02,1.79.23,2.65.2.83.54,1.64.98,2.38.44.71.98,1.38,1.61,1.94.63.56,1.34,1.04,2.11,1.39.43.19.86.36,1.31.49.45.12.92.2,1.39.26.89.1,1.8.04,2.68-.14.84-.17,1.66-.48,2.4-.9.74-.41,1.42-.93,2-1.54.59-.61,1.09-1.32,1.47-2.08.38-.77.67-1.59.8-2.45.07-.46.12-.93.12-1.4,0-.23-.1-.46-.26-.62-.15-.16-.4-.27-.62-.26-.23,0-.46.08-.62.26-.15.17-.25.38-.25.62Z"/>
            <path class="cls-1" d="M8.56,13.98c.23,0,.46-.1.62-.25.16-.16.27-.41.26-.63,0-.22-.08-.46-.26-.62-.17-.16-.38-.25-.62-.25-.22,0-.46.09-.62.25-.15.15-.27.4-.26.62,0,.23.09.47.26.63.17.15.39.25.62.25ZM6.86,6.6c0-.11,0-.22.02-.34-.01.08-.02.16-.03.23.03-.22.09-.44.18-.65-.03.07-.06.14-.09.2.09-.2.2-.39.34-.57-.05.06-.1.12-.14.18.14-.18.29-.34.47-.47-.06.04-.12.09-.18.13.18-.13.37-.24.58-.33-.07.03-.14.06-.21.09.21-.09.43-.15.66-.18-.08.01-.16.02-.24.03.23-.03.46-.03.69,0-.08-.01-.16-.02-.24-.03.23.03.45.09.66.17-.07-.03-.14-.06-.21-.08.21.08.4.2.58.33-.06-.04-.12-.09-.18-.14.18.14.33.3.47.47-.04-.06-.09-.11-.14-.17.14.17.25.37.34.57-.03-.07-.06-.14-.09-.21.09.22.15.44.18.66-.01-.07-.02-.15-.03-.23.03.23.03.46,0,.68.01-.08.02-.16.03-.23-.03.22-.09.45-.18.66.03-.07.06-.14.09-.21-.09.2-.2.4-.34.58.05-.06.09-.12.14-.18-.14.18-.3.33-.47.47.06-.05.12-.09.18-.14-.18.14-.37.24-.57.33-.26.12-.5.3-.7.49-.46.46-.71,1.08-.74,1.73,0,.13,0,.25,0,.38,0,.23.09.46.25.62.15.16.4.27.62.26.23-.01.47-.08.63-.26.15-.17.25-.38.25-.62,0-.18,0-.36.02-.53-.01.07-.02.15-.03.23.02-.14.06-.28.11-.41-.03.07-.06.14-.09.21.06-.14.14-.26.23-.38-.05.06-.09.12-.14.18.09-.12.19-.21.3-.3-.06.04-.12.09-.18.14.17-.13.36-.21.55-.31.24-.12.45-.28.65-.45.35-.3.65-.7.84-1.13.11-.25.21-.5.26-.77.04-.27.08-.54.07-.82-.03-.53-.16-1.04-.41-1.51-.44-.84-1.26-1.48-2.18-1.72-.53-.13-1.06-.14-1.59-.03-.26.04-.49.14-.73.24-.18.08-.35.17-.51.28-.44.32-.83.72-1.09,1.21-.27.51-.42,1.07-.42,1.65,0,.23.1.47.26.63.15.15.4.26.62.25.48-.02.88-.38.88-.88Z"/>
          </g>
        </g>
      </g>
    </g>
  </g>
</svg>