<?xml version="1.0" encoding="UTF-8"?>
<svg id="Calque_2" data-name="Calque 2" xmlns="http://www.w3.org/2000/svg" xmlns:xlink="http://www.w3.org/1999/xlink" viewBox="0 0 59.25 59.25">
  <defs>
    <style>
      .cls-1 {
        fill: #fff;
      }

      .cls-2 {
        fill: url(#radial-gradient);
        stroke: #fff;
        stroke-width: 2.6px;
      }
    </style>
    <radialGradient id="radial-gradient" cx="30.04" cy="-22.07" fx="30.04" fy="-22.07" r="71.39" gradientUnits="userSpaceOnUse">
      <stop offset="0" stop-color="#fff"/>
      <stop offset="1" stop-color="#fea032"/>
    </radialGradient>
  </defs>
  <g id="Body">
    <g id="DetailSalaries">
      <g id="Téléphone">
        <path class="cls-2" d="M29.63,1.3h0c15.64,0,28.33,12.68,28.33,28.33h0c0,15.64-12.68,28.33-28.33,28.33h0c-15.64,0-28.33-12.68-28.33-28.33h0C1.3,13.98,13.98,1.3,29.63,1.3Z"/>
        <path class="cls-1" d="M38.93,30.88c-.28,0-.56-.09-.84-.15-.56-.12-1.1-.29-1.64-.49-.58-.21-1.21-.2-1.79.03-.57.23-1.03.66-1.31,1.22l-.27.56c-1.22-.68-2.34-1.52-3.33-2.5-.98-.99-1.82-2.11-2.5-3.33l.53-.35c.55-.27.99-.74,1.22-1.31.23-.57.24-1.21.03-1.79-.2-.54-.36-1.08-.49-1.64-.06-.28-.11-.56-.15-.85-.15-.88-.61-1.68-1.3-2.25-.69-.57-1.55-.88-2.45-.86h-3.75c-.54,0-1.07.11-1.56.33-.49.22-.93.54-1.29.95-.35.4-.62.88-.77,1.4-.16.52-.2,1.06-.13,1.59.67,5.24,3.06,10.1,6.8,13.83,3.74,3.73,8.61,6.1,13.85,6.75h.48c.92,0,1.81-.34,2.5-.95.39-.35.71-.79.92-1.27.22-.48.33-1.01.33-1.54v-3.75c-.02-.87-.33-1.7-.9-2.36-.56-.66-1.34-1.11-2.19-1.26ZM39.55,38.38c0,.18-.03.35-.11.51-.07.16-.18.31-.31.42-.14.12-.3.21-.48.27-.18.05-.36.07-.55.05-4.68-.6-9.03-2.74-12.35-6.09-3.33-3.35-5.46-7.7-6.03-12.39-.02-.18-.01-.37.05-.55.05-.18.14-.34.26-.48.12-.13.26-.24.42-.31.16-.07.34-.11.52-.11h3.75c.29,0,.57.09.8.27s.39.43.45.72c.05.34.11.68.18,1.01.15.66.34,1.31.58,1.94l-1.75.81c-.15.07-.28.17-.4.29-.11.12-.2.26-.25.42-.06.15-.09.32-.08.48.01.16.05.33.12.47,1.8,3.85,4.89,6.95,8.75,8.75.3.12.64.12.95,0,.15-.05.3-.14.42-.25s.22-.25.29-.4l.77-1.75c.65.23,1.31.42,1.98.58.33.08.67.14,1.01.19.29.06.54.22.72.45s.28.51.27.8l.02,3.9Z"/>
      </g>
    </g>
  </g>
</svg>