<?xml version="1.0" encoding="UTF-8"?>
<svg id="Calque_2" data-name="Calque 2" xmlns="http://www.w3.org/2000/svg" viewBox="0 0 38.71 41.05">
  <defs>
    <style>
      .cls-1 {
        fill: none;
        stroke: #bfcbe1;
        stroke-linecap: round;
        stroke-linejoin: round;
        stroke-width: 3px;
      }
    </style>
  </defs>
  <g id="LeftPage">
    <g id="Menu">
      <g id="Paramètres">
        <g id="Paramétres">
          <path class="cls-1" d="M19.79,1.5h-.87c-2.19,0-3.96,1.7-3.96,3.81v.34c0,1.36-.76,2.61-1.98,3.29l-.85.48c-1.23.68-2.73.68-3.96,0l-.3-.15c-1.89-1.05-4.31-.43-5.4,1.39l-.44.72c-1.09,1.82-.44,4.14,1.45,5.19l.3.19c1.22.68,1.97,1.92,1.98,3.27v.97c0,1.36-.75,2.63-1.98,3.31l-.3.17c-1.89,1.05-2.54,3.38-1.45,5.19l.44.72c1.09,1.82,3.51,2.44,5.4,1.39l.3-.15c1.23-.68,2.73-.68,3.96,0l.85.48c1.22.68,1.98,1.93,1.98,3.29v.34c0,2.1,1.77,3.81,3.96,3.81h.87c2.19,0,3.96-1.7,3.96-3.81v-.34c0-1.36.76-2.61,1.98-3.29l.85-.48c1.23-.68,2.73-.68,3.96,0l.3.15c1.89,1.05,4.31.43,5.4-1.39l.44-.74c1.09-1.82.44-4.14-1.45-5.19l-.3-.15c-1.23-.68-1.99-1.95-1.98-3.31v-.95c0-1.36.75-2.63,1.98-3.31l.3-.17c1.89-1.05,2.54-3.38,1.45-5.19l-.44-.72c-1.09-1.82-3.51-2.44-5.4-1.39l-.3.15c-1.23.68-2.73.68-3.96,0l-.85-.48c-1.22-.68-1.98-1.93-1.98-3.29v-.34c0-2.1-1.77-3.81-3.96-3.81Z"/>
          <ellipse class="cls-1" cx="19.35" cy="20.53" rx="5.94" ry="5.71"/>
        </g>
      </g>
    </g>
  </g>
</svg>